<svg xmlns="http://www.w3.org/2000/svg" version="1.1" xmlns:xlink="http://www.w3.org/1999/xlink" width="1000" height="1000"><metadata><rdf:RDF xmlns:rdf="http://www.w3.org/1999/02/22-rdf-syntax-ns#" xmlns:dc="http://purl.org/dc/elements/1.1/"><rdf:Description><dc:creator>RealFaviconGenerator</dc:creator><dc:source>https://realfavicongenerator.net</dc:source></rdf:Description></rdf:RDF></metadata><style>
    #light-icon {
      display: inline;
    }
    #dark-icon {
      display: none;
    }

    @media (prefers-color-scheme: dark) {
      #light-icon {
        display: none;
      }
      #dark-icon {
        display: inline;
      }
    }
  </style><g id="light-icon"><svg xmlns="http://www.w3.org/2000/svg" version="1.1" xmlns:xlink="http://www.w3.org/1999/xlink" width="1000" height="1000"><g><g transform="matrix(2.118419658934435,0,0,2.118419658934435,0,77.91547505560851)"><svg xmlns="http://www.w3.org/2000/svg" id="Layer_2" data-name="Layer 2" viewBox="0 0 472.05 398.49" width="472.05" height="398.49"><g id="Layer_1-2" data-name="Layer 1">
    <g>
      <path d="m282.95,364.05c-15.37-15.53-37.81-53.18-47.37-73.03l-16.98-35.26-.51,10.21c-.49,9.91-.5,19.49-1.83,29.29-4.53,33.37-18.33,61.3-48.97,77.48-16.39,8.65-33.34,12.16-51.75,13.37-18.78,1.24-41.54-3.28-58.59-11.5-20.95-10.1-36.85-27.41-46.16-48.68-6.76-15.44-9.44-31.76-10.49-48.54-.48-7.69-.29-15.03.04-22.71.53-12.3,2.16-23.91,6.9-35.27,6.31-15.14,16.97-27.1,31.58-34.67,7.96-4.12,16.01-7.58,24.89-9.6l36.76-8.36c16.99-3.87,33.41-8.13,49.6-14.48,18.7-7.33,34.32-18.82,38.97-39.33,1.89-8.34,2.4-16.57,1.85-25.08-.67-10.46-4.53-19.73-11.44-27.7-8.59-9.91-19.7-16.7-32.25-20.61-5.03-1.57-9.82-2.62-15.06-2.94-6.36-.39-12.4-.79-18.75-.25-11.99,1.01-23.52,2.96-34.56,7.66-25.16,10.71-36.06,34.05-37.31,60.32l-.53,26.32-.15,39.73-35.05.09.18-31.79.32-27.65c.28-29.8,5.92-54.91,25.47-77.97,13.15-15.52,33.31-25.26,53.09-29.21,28.23-5.64,55.29-5.93,82.48,4.58,11.11,4.29,21.14,10.14,29.9,18.25,17.18,15.91,27.55,37.73,29.22,61.12.97,13.59-.24,26.94-4.07,39.91-8.22,27.85-27.64,44.73-53.3,56.35-22.62,10.24-45.96,14.71-70.15,19.84-10.44,2.21-20.28,5-30.45,7.97-6.77,1.97-12.97,4.91-18.71,8.79-15.77,10.64-15.76,26.29-16.07,43.29-.29,15.73,1.08,31.16,6.97,45.9,8.97,22.43,30.85,36.43,54.21,39.92,11.36,1.7,22.9,1.65,34.33-.43,12.69-2.31,24.56-8.07,34.16-16.58,14.47-12.85,19.54-34.84,20.37-53.37l.6-13.31.58-76.17c10.67-5.87,19.78-12.87,28.89-20.62,4.01,11.75,8.8,22.4,13.98,33.45l28.35,54.92,32.16,58.21c1.95,3.53,4.09,6.3,6.35,9.69l.31-9.04,11.11-.55,15.56-.46.3,10.11.84,30.44.41,20.76c-16.29.69-28.39-.82-40.23-12.78Z"></path>
      <path d="m381.52,118.3c-13.45-6.86-29.7-2.01-36.34,12.25-3.37,7.25-4.97,14.99-5.95,23.09l-6.14,50.91-11.15,86.94-26.46.02c-1.39-22.93-3.17-44.98-6.65-67.36-1.9-13.84-4.53-26.98-8.64-40.24-2.41-7.78-7.52-20.82-13.62-26.78l-7.58,28.54h-7.32c-9.23-16.16-17.16-26.85-15.73-46.33.57-7.83,2.84-15.2,8.83-20.07,11.31-9.21,26.84-8.14,36.42,2.84,10.7,12.26,17.38,29.34,23.87,44.35l.99-15.06c.65-9.83,2.26-19.31,5.32-28.69,9.77-29.95,33.5-45.68,65.06-42.44,20.33,2.09,38.03,14.48,47.52,32.46,8.47,16.04,9.6,33.01,9.59,50.98l-.02,37.51-.34,86.59-.09,59.4c0,3.09.37,5.97.9,8.86,1.24,4.96,4.99,7.91,10.11,8.52h27.95s-.1,33.91-.1,33.91l-38-.03c-5.33-.74-10.19-1.68-15.03-3.67-7.37-3.23-12.87-8.67-15.97-16.25-2.96-7.23-4.67-15-4.68-23.23l-.11-75.12.32-93.69v-31.94c.02-13.73-3.74-29.51-16.96-36.26Z"></path>
    </g>
  </g></svg></g></g></svg></g><g id="dark-icon"><svg xmlns="http://www.w3.org/2000/svg" version="1.1" xmlns:xlink="http://www.w3.org/1999/xlink" width="1000" height="1000"><g><g transform="matrix(2.118419658934435,0,0,2.118419658934435,0,77.91547505560851)"><svg xmlns="http://www.w3.org/2000/svg" id="Layer_2" data-name="Layer 2" viewBox="0 0 472.05 398.49" width="472.05" height="398.49"><defs>
    <style>
      .cls-1 {
        fill: #fff;
      }
    </style>
  </defs><g id="Layer_1-2" data-name="Layer 1">
    <g>
      <path class="cls-1" d="m282.95,364.05c-15.37-15.53-37.81-53.18-47.37-73.03l-16.98-35.26-.51,10.21c-.49,9.91-.5,19.49-1.83,29.29-4.53,33.37-18.33,61.3-48.97,77.48-16.39,8.65-33.34,12.16-51.75,13.37-18.78,1.24-41.54-3.28-58.59-11.5-20.95-10.1-36.85-27.41-46.16-48.68-6.76-15.44-9.44-31.76-10.49-48.54-.48-7.69-.29-15.03.04-22.71.53-12.3,2.16-23.91,6.9-35.27,6.31-15.14,16.97-27.1,31.58-34.67,7.96-4.12,16.01-7.58,24.89-9.6l36.76-8.36c16.99-3.87,33.41-8.13,49.6-14.48,18.7-7.33,34.32-18.82,38.97-39.33,1.89-8.34,2.4-16.57,1.85-25.08-.67-10.46-4.53-19.73-11.44-27.7-8.59-9.91-19.7-16.7-32.25-20.61-5.03-1.57-9.82-2.62-15.06-2.94-6.36-.39-12.4-.79-18.75-.25-11.99,1.01-23.52,2.96-34.56,7.66-25.16,10.71-36.06,34.05-37.31,60.32l-.53,26.32-.15,39.73-35.05.09.18-31.79.32-27.65c.28-29.8,5.92-54.91,25.47-77.97,13.15-15.52,33.31-25.26,53.09-29.21,28.23-5.64,55.29-5.93,82.48,4.58,11.11,4.29,21.14,10.14,29.9,18.25,17.18,15.91,27.55,37.73,29.22,61.12.97,13.59-.24,26.94-4.07,39.91-8.22,27.85-27.64,44.73-53.3,56.35-22.62,10.24-45.96,14.71-70.15,19.84-10.44,2.21-20.28,5-30.45,7.97-6.77,1.97-12.97,4.91-18.71,8.79-15.77,10.64-15.76,26.29-16.07,43.29-.29,15.73,1.08,31.16,6.97,45.9,8.97,22.43,30.85,36.43,54.21,39.92,11.36,1.7,22.9,1.65,34.33-.43,12.69-2.31,24.56-8.07,34.16-16.58,14.47-12.85,19.54-34.84,20.37-53.37l.6-13.31.58-76.17c10.67-5.87,19.78-12.87,28.89-20.62,4.01,11.75,8.8,22.4,13.98,33.45l28.35,54.92,32.16,58.21c1.95,3.53,4.09,6.3,6.35,9.69l.31-9.04,11.11-.55,15.56-.46.3,10.11.84,30.44.41,20.76c-16.29.69-28.39-.82-40.23-12.78Z"></path>
      <path class="cls-1" d="m381.52,118.3c-13.45-6.86-29.7-2.01-36.34,12.25-3.37,7.25-4.97,14.99-5.95,23.09l-6.14,50.91-11.15,86.94-26.46.02c-1.39-22.93-3.17-44.98-6.65-67.36-1.9-13.84-4.53-26.98-8.64-40.24-2.41-7.78-7.52-20.82-13.62-26.78l-7.58,28.54h-7.32c-9.23-16.16-17.16-26.85-15.73-46.33.57-7.83,2.84-15.2,8.83-20.07,11.31-9.21,26.84-8.14,36.42,2.84,10.7,12.26,17.38,29.34,23.87,44.35l.99-15.06c.65-9.83,2.26-19.31,5.32-28.69,9.77-29.95,33.5-45.68,65.06-42.44,20.33,2.09,38.03,14.48,47.52,32.46,8.47,16.04,9.6,33.01,9.59,50.98l-.02,37.51-.34,86.59-.09,59.4c0,3.09.37,5.97.9,8.86,1.24,4.96,4.99,7.91,10.11,8.52h27.95s-.1,33.91-.1,33.91l-38-.03c-5.33-.74-10.19-1.68-15.03-3.67-7.37-3.23-12.87-8.67-15.97-16.25-2.96-7.23-4.67-15-4.68-23.23l-.11-75.12.32-93.69v-31.94c.02-13.73-3.74-29.51-16.96-36.26Z"></path>
    </g>
  </g></svg></g></g></svg></g></svg>